<svg width="26" height="24" viewBox="0 0 26 24" fill="none" xmlns="http://www.w3.org/2000/svg">
<path d="M2.65346 14.7696C2.4304 16.1636 3.42765 17.1312 4.64866 17.6134C9.32977 19.4622 15.844 19.4622 20.5251 17.6134C21.7462 17.1312 22.7434 16.1636 22.5203 14.7696C22.3833 13.9129 21.7054 13.1995 21.2032 12.5029C20.5454 11.5793 20.4801 10.5718 20.48 9.5C20.48 5.35786 16.9461 2 12.5869 2C8.22768 2 4.69384 5.35786 4.69384 9.5C4.69374 10.5718 4.62838 11.5793 3.97058 12.5029C3.46839 13.1995 2.79054 13.9129 2.65346 14.7696Z" stroke="#0957DE" stroke-width="1.5" stroke-linecap="round" stroke-linejoin="round"/>
<path d="M8.39062 19C8.87155 20.7252 10.5677 22 12.5863 22C14.605 22 16.3011 20.7252 16.7821 19" stroke="#0957DE" stroke-width="1.5" stroke-linecap="round" stroke-linejoin="round"/>
</svg>
