<svg width="26" height="24" viewBox="0 0 26 24" fill="none" xmlns="http://www.w3.org/2000/svg">
<path d="M11.3176 15.1698C11.1078 15.1698 10.9085 15.0898 10.7617 14.9498L8.22326 12.5298C7.91907 12.2398 7.91907 11.7598 8.22326 11.4698C8.52745 11.1798 9.03093 11.1798 9.33512 11.4698L11.3176 13.3598L15.828 9.05979C16.1322 8.76979 16.6357 8.76979 16.9399 9.05979C17.2441 9.34979 17.2441 9.82978 16.9399 10.1198L11.8735 14.9498C11.7267 15.0898 11.5274 15.1698 11.3176 15.1698Z" fill="#0957DE"/>
<path d="M12.5872 22.75C11.9263 22.75 11.2655 22.54 10.7515 22.12L9.09422 20.76C8.92639 20.62 8.50682 20.48 8.28654 20.48H6.48238C4.92997 20.48 3.67125 19.28 3.67125 17.8V16.09C3.67125 15.88 3.5244 15.49 3.37755 15.33L1.9615 13.74C1.10138 12.77 1.10138 11.24 1.9615 10.27L3.37755 8.68C3.5244 8.52 3.67125 8.13 3.67125 7.92V6.2C3.67125 4.72 4.92997 3.52 6.48238 3.52H8.29703C8.51731 3.52 8.93688 3.37 9.10471 3.24L10.762 1.88C11.79 1.04 13.3948 1.04 14.4228 1.88L16.0801 3.24C16.2479 3.38 16.6675 3.52 16.8878 3.52H18.6709C20.2234 3.52 21.4821 4.72 21.4821 6.2V7.9C21.4821 8.11 21.6394 8.51 21.7863 8.67L23.2128 10.25C24.0939 11.23 24.0939 12.76 23.2128 13.74L21.7863 15.32C21.6394 15.48 21.4821 15.88 21.4821 16.09V17.79C21.4821 19.27 20.2234 20.47 18.6709 20.47H16.8878C16.6675 20.47 16.2479 20.62 16.0801 20.75L14.4228 22.11C13.9088 22.54 13.248 22.75 12.5872 22.75ZM6.48238 5.02C5.80058 5.02 5.24465 5.55 5.24465 6.2V7.91C5.24465 8.48 4.96144 9.21 4.57333 9.64L3.15728 11.23C2.79015 11.64 2.79015 12.35 3.15728 12.76L4.57333 14.35C4.96144 14.79 5.24465 15.51 5.24465 16.08V17.79C5.24465 18.44 5.80058 18.97 6.48238 18.97H8.29703C8.90541 18.97 9.67113 19.24 10.1327 19.62L11.79 20.98C12.22 21.33 12.9753 21.33 13.4053 20.98L15.0626 19.62C15.5242 19.25 16.2899 18.97 16.8983 18.97H18.6814C19.3632 18.97 19.9192 18.44 19.9192 17.79V16.09C19.9192 15.51 20.2024 14.78 20.601 14.34L22.0275 12.76C22.3946 12.35 22.3946 11.63 22.0275 11.22L20.601 9.64C20.2024 9.2 19.9192 8.47 19.9192 7.89V6.2C19.9192 5.55 19.3632 5.02 18.6814 5.02H16.8983C16.2899 5.02 15.5242 4.75 15.0626 4.37L13.4053 3.01C12.9753 2.66 12.22 2.66 11.79 3.01L10.1327 4.38C9.67113 4.75 8.89492 5.02 8.29703 5.02H6.48238Z" fill="#0957DE"/>
</svg>
