<svg width="26" height="24" viewBox="0 0 26 24" fill="none" xmlns="http://www.w3.org/2000/svg">
<path d="M19.9294 9V7.81818C19.9294 6.12494 19.9294 5.27832 19.6648 4.60214C19.2395 3.5151 18.3401 2.65765 17.1999 2.2522C16.4906 2 15.6026 2 13.8265 2C10.7183 2 9.16426 2 7.92305 2.44135C5.92764 3.15088 4.35368 4.65142 3.60943 6.55375C3.14648 7.73706 3.14648 9.21865 3.14648 12.1818L3.14648 14.7273C3.14648 17.7966 3.14648 19.3313 3.98336 20.3971C4.22313 20.7025 4.5075 20.9736 4.8278 21.2022C5.94573 22 7.55551 22 10.7751 22H11.5379C12.7649 22 15.2092 22 15.2092 22" stroke="#0957DE" stroke-width="1.5" stroke-linecap="round" stroke-linejoin="round"/>
<path d="M11.5381 14.3333H12.4195C13.1134 14.3333 13.4604 14.3333 13.7392 14.5076C14.0181 14.6818 14.1732 14.9956 14.4835 15.6232L16.1534 19L18.461 12L20.1309 15.3768C20.4412 16.0044 20.5963 16.3182 20.8752 16.4924C21.154 16.6667 21.501 16.6667 22.1949 16.6667H23.0763" stroke="#0957DE" stroke-width="1.5" stroke-linecap="round" stroke-linejoin="round"/>
<path d="M3.14648 12C3.14648 10.1591 4.71189 8.66667 6.64292 8.66667H7.80839C8.35032 8.66667 8.62129 8.66667 8.8436 8.60988C9.4469 8.45577 9.91813 8.00652 10.0798 7.43137C10.1393 7.21942 10.1393 6.9611 10.1393 6.44444V5.33333C10.1393 3.49238 11.7048 2 13.6358 2" stroke="#0957DE" stroke-width="1.5" stroke-linecap="round" stroke-linejoin="round"/>
</svg>
