<svg width="26" height="24" viewBox="0 0 26 24" fill="none" xmlns="http://www.w3.org/2000/svg">
<path d="M8.91504 18C10.8173 16.0463 14.3348 15.9543 16.2575 18M14.6219 12C14.6219 13.1046 13.7074 14 12.5794 14C11.4513 14 10.5369 13.1046 10.5369 12C10.5369 10.8954 11.4513 10 12.5794 10C13.7074 10 14.6219 10.8954 14.6219 12Z" stroke="#0957DE" stroke-width="1.5" stroke-linecap="round"/>
<path d="M9.96448 4.00098C7.19069 4.01083 5.70688 4.1033 4.74618 4.97097C3.6709 5.94215 3.6709 7.50522 3.6709 10.6314V15.3682C3.6709 18.4944 3.6709 20.0575 4.74618 21.0286C5.82147 21.9998 7.55212 21.9998 11.0134 21.9998H14.1602C17.6215 21.9998 19.3521 21.9998 20.4274 21.0286C21.5027 20.0575 21.5027 18.4944 21.5027 15.3682V10.6314C21.5027 7.50522 21.5027 5.94215 20.4274 4.97097C19.4667 4.1033 17.9829 4.01083 15.2091 4.00098" stroke="#0957DE" stroke-width="1.5" stroke-linecap="round" stroke-linejoin="round"/>
<path d="M10.2493 3.63163C10.35 3.21682 10.4003 3.00942 10.4969 2.84004C10.7221 2.44546 11.1374 2.15548 11.6332 2.0467C11.846 2 12.0927 2 12.5862 2C13.0796 2 13.3264 2 13.5392 2.0467C14.035 2.15548 14.4503 2.44545 14.6754 2.84004C14.7721 3.00942 14.8224 3.21682 14.923 3.63163L15.0104 3.99176C15.1889 4.72744 15.2782 5.09528 15.1435 5.37824C15.0563 5.5615 14.9077 5.71842 14.7166 5.82911C14.4214 6 13.9838 6 13.1087 6H12.0637C11.1885 6 10.751 6 10.4558 5.82911C10.2647 5.71842 10.1161 5.5615 10.0289 5.37824C9.89423 5.09528 9.98347 4.72744 10.162 3.99176L10.2493 3.63163Z" stroke="#0957DE" stroke-width="1.5"/>
</svg>
