<svg width="26" height="24" viewBox="0 0 26 24" fill="none" xmlns="http://www.w3.org/2000/svg">
<path d="M12.5868 15.75C10.4155 15.75 8.65332 14.07 8.65332 12C8.65332 9.93 10.4155 8.25 12.5868 8.25C14.7581 8.25 16.5203 9.93 16.5203 12C16.5203 14.07 14.7581 15.75 12.5868 15.75ZM12.5868 9.75C11.2861 9.75 10.2267 10.76 10.2267 12C10.2267 13.24 11.2861 14.25 12.5868 14.25C13.8875 14.25 14.9469 13.24 14.9469 12C14.9469 10.76 13.8875 9.75 12.5868 9.75Z" fill="#0957DE"/>
<path d="M15.9546 22.1898C15.7343 22.1898 15.514 22.1598 15.2938 22.1098C14.6434 21.9398 14.098 21.5498 13.7518 20.9998L13.626 20.7998C13.0071 19.7798 12.1575 19.7798 11.5386 20.7998L11.4232 20.9898C11.0771 21.5498 10.5316 21.9498 9.88128 22.1098C9.22045 22.2798 8.53865 22.1898 7.96174 21.8598L6.15758 20.8698C5.51773 20.5198 5.0562 19.9498 4.85691 19.2598C4.6681 18.5698 4.7625 17.8598 5.12963 17.2498C5.43382 16.7398 5.51773 16.2798 5.33941 15.9898C5.1611 15.6998 4.71006 15.5298 4.09119 15.5298C2.55975 15.5298 1.31152 14.3398 1.31152 12.8798V11.1198C1.31152 9.6598 2.55975 8.4698 4.09119 8.4698C4.71006 8.4698 5.1611 8.2998 5.33941 8.0098C5.51773 7.7198 5.44431 7.2598 5.12963 6.7498C4.7625 6.1398 4.6681 5.4198 4.85691 4.7398C5.04571 4.0498 5.50724 3.4798 6.15758 3.1298L7.97223 2.1398C9.15752 1.4698 10.7204 1.8598 11.4337 3.0098L11.5596 3.2098C12.1784 4.2298 13.0281 4.2298 13.6469 3.2098L13.7623 3.0198C14.4756 1.8598 16.0385 1.4698 17.2343 2.1498L19.0384 3.1398C19.6783 3.4898 20.1398 4.0598 20.3391 4.7498C20.5279 5.4398 20.4335 6.1498 20.0664 6.7598C19.7622 7.2698 19.6783 7.7298 19.8566 8.0198C20.0349 8.3098 20.486 8.4798 21.1048 8.4798C22.6363 8.4798 23.8845 9.6698 23.8845 11.1298V12.8898C23.8845 14.3498 22.6363 15.5398 21.1048 15.5398C20.486 15.5398 20.0349 15.7098 19.8566 15.9998C19.6783 16.2898 19.7517 16.7498 20.0664 17.2598C20.4335 17.8698 20.5384 18.5898 20.3391 19.2698C20.1503 19.9598 19.6888 20.5298 19.0384 20.8798L17.2238 21.8698C16.8252 22.0798 16.3951 22.1898 15.9546 22.1898ZM12.5875 18.4898C13.5211 18.4898 14.3917 19.0498 14.9896 20.0398L15.1049 20.2298C15.2308 20.4398 15.4406 20.5898 15.6923 20.6498C15.9441 20.7098 16.1958 20.6798 16.4056 20.5598L18.2203 19.5598C18.493 19.4098 18.7028 19.1598 18.7867 18.8598C18.8706 18.5598 18.8286 18.2498 18.6713 17.9898C18.0734 17.0098 18 15.9998 18.4615 15.2298C18.9231 14.4598 19.8776 14.0198 21.0734 14.0198C21.7447 14.0198 22.2796 13.5098 22.2796 12.8698V11.1098C22.2796 10.4798 21.7447 9.9598 21.0734 9.9598C19.8776 9.9598 18.9231 9.5198 18.4615 8.7498C18 7.9798 18.0734 6.9698 18.6713 5.9898C18.8286 5.7298 18.8706 5.4198 18.7867 5.1198C18.7028 4.8198 18.5035 4.5798 18.2308 4.4198L16.4161 3.4298C15.9651 3.1698 15.3672 3.3198 15.0945 3.7598L14.9791 3.9498C14.3812 4.9398 13.5106 5.4998 12.577 5.4998C11.6435 5.4998 10.7729 4.9398 10.175 3.9498L10.0596 3.7498C9.79737 3.3298 9.20996 3.1798 8.75892 3.4298L6.94428 4.4298C6.67155 4.5798 6.46177 4.8298 6.37785 5.1298C6.29394 5.4298 6.3359 5.7398 6.49324 5.9998C7.09113 6.9798 7.16455 7.9898 6.70302 8.7598C6.24149 9.5298 5.28697 9.9698 4.09119 9.9698C3.41987 9.9698 2.88492 10.4798 2.88492 11.1198V12.8798C2.88492 13.5098 3.41987 14.0298 4.09119 14.0298C5.28697 14.0298 6.24149 14.4698 6.70302 15.2398C7.16455 16.0098 7.09113 17.0198 6.49324 17.9998C6.3359 18.2598 6.29394 18.5698 6.37785 18.8698C6.46177 19.1698 6.66107 19.4098 6.93379 19.5698L8.74844 20.5598C8.96871 20.6898 9.23094 20.7198 9.4722 20.6598C9.72394 20.5998 9.93373 20.4398 10.0701 20.2298L10.1855 20.0398C10.7834 19.0598 11.654 18.4898 12.5875 18.4898Z" fill="#0957DE"/>
</svg>
