<svg width="18" height="22" viewBox="0 0 18 22" fill="none" xmlns="http://www.w3.org/2000/svg">
<path d="M1.58203 8.65308C1.58203 12.7952 4.9399 16.1531 9.08203 16.1531C13.2242 16.1531 16.582 12.7952 16.582 8.65308C16.582 4.51094 13.2242 1.15308 9.08203 1.15308C4.9399 1.15308 1.58203 4.51094 1.58203 8.65308Z" stroke="#F39F18" stroke-width="1.5" stroke-linecap="round" stroke-linejoin="round"/>
<path d="M6.08203 9.32048C6.08203 9.32048 6.83203 9.32048 7.58203 10.6538C7.58203 10.6538 9.96438 7.32048 12.082 6.65381" stroke="#F39F18" stroke-width="1.5" stroke-linecap="round" stroke-linejoin="round"/>
<path d="M13.9645 14.1538L14.6347 17.3638C15.0653 19.4262 15.2806 20.4574 14.8384 20.9461C14.3961 21.4348 13.6281 21.0144 12.0919 20.1736L9.81845 18.9291C9.45542 18.7304 9.27389 18.6311 9.08203 18.6311C8.89017 18.6311 8.70865 18.7304 8.34561 18.9291L6.07211 20.1736C4.53601 21.0144 3.76795 21.4348 3.32568 20.9461C2.88342 20.4574 3.09873 19.4262 3.52934 17.3638L4.19955 14.1538" stroke="#F39F18" stroke-width="1.5" stroke-linejoin="round"/>
</svg>
