<svg width="20" height="20" viewBox="0 0 20 20" fill="none" xmlns="http://www.w3.org/2000/svg">
<path fill-rule="evenodd" clip-rule="evenodd" d="M2.0166 6.84893C2.0166 5.73458 2.77501 4.76323 3.85609 4.49295L5.25459 4.14333L6.39296 2.43578C6.69322 1.98538 7.19872 1.71484 7.74004 1.71484H12.4831C13.0244 1.71484 13.5299 1.98538 13.8301 2.43578L14.9685 4.14333L16.367 4.49295C17.4481 4.76323 18.2065 5.73458 18.2065 6.84893V15.4763C18.2065 16.8175 17.1193 17.9048 15.778 17.9048H4.44509C3.10388 17.9048 2.0166 16.8175 2.0166 15.4763V6.84893Z" fill="#E9E9FF"/>
<path d="M10.1113 7.38159C11.8994 7.38175 13.3486 8.83171 13.3486 10.6199C13.3484 12.4079 11.8993 13.857 10.1113 13.8572C8.32316 13.8572 6.87325 12.408 6.87305 10.6199C6.87305 8.83162 8.32304 7.38159 10.1113 7.38159ZM14.9678 6.57202C15.4149 6.57202 15.7773 6.93452 15.7773 7.38159C15.7773 7.82863 15.4148 8.19116 14.9678 8.19116C14.5208 8.19104 14.1582 7.82855 14.1582 7.38159C14.1582 6.9346 14.5208 6.57215 14.9678 6.57202Z" fill="#2D3043"/>
</svg>
