<svg width="56" height="56" viewBox="0 0 56 56" fill="none" xmlns="http://www.w3.org/2000/svg">
<path d="M28.0002 29.7498C20.6035 29.7498 14.5835 23.7298 14.5835 16.3332C14.5835 8.9365 20.6035 2.9165 28.0002 2.9165C35.3968 2.9165 41.4168 8.9365 41.4168 16.3332C41.4168 23.7298 35.3968 29.7498 28.0002 29.7498ZM28.0002 6.4165C22.5402 6.4165 18.0835 10.8732 18.0835 16.3332C18.0835 21.7932 22.5402 26.2498 28.0002 26.2498C33.4602 26.2498 37.9168 21.7932 37.9168 16.3332C37.9168 10.8732 33.4602 6.4165 28.0002 6.4165Z" fill="#FF4141"/>
<path d="M7.95703 53.0833C7.00036 53.0833 6.20703 52.29 6.20703 51.3333C6.20703 41.37 15.9837 33.25 28.0004 33.25C30.357 33.25 32.667 33.5534 34.907 34.1834C35.8403 34.4401 36.377 35.3967 36.1204 36.33C35.8637 37.2634 34.907 37.8001 33.9737 37.5434C32.0604 37.0067 30.0537 36.75 28.0004 36.75C17.9204 36.75 9.70703 43.2833 9.70703 51.3333C9.70703 52.29 8.9137 53.0833 7.95703 53.0833Z" fill="#FF4141"/>
<path d="M41.9998 53.0832C39.2465 53.0832 36.6331 52.0565 34.6031 50.2132C33.7865 49.5132 33.0632 48.6498 32.5032 47.6932C31.4765 46.0132 30.9165 44.0298 30.9165 41.9998C30.9165 39.0832 32.0365 36.3532 34.0432 34.2765C36.1432 32.1065 38.9665 30.9165 41.9998 30.9165C45.1732 30.9165 48.1832 32.2699 50.2365 34.6032C52.0565 36.6332 53.0832 39.2465 53.0832 41.9998C53.0832 42.8865 52.9665 43.7732 52.7332 44.6132C52.4999 45.6632 52.0565 46.7599 51.4498 47.7165C49.5131 51.0299 45.8732 53.0832 41.9998 53.0832ZM41.9998 34.4165C39.9232 34.4165 38.0099 35.2331 36.5632 36.7031C35.1865 38.1265 34.4165 39.9932 34.4165 41.9998C34.4165 43.3765 34.7898 44.7298 35.5132 45.8965C35.8865 46.5498 36.3765 47.1331 36.9365 47.6231C38.3365 48.9064 40.1332 49.6065 41.9998 49.6065C44.6365 49.6065 47.1332 48.2065 48.4865 45.9432C48.8832 45.2898 49.1865 44.5432 49.3498 43.8199C49.5132 43.2132 49.5832 42.6299 49.5832 42.0232C49.5832 40.1565 48.8832 38.3599 47.6232 36.9599C46.2232 35.3266 44.1698 34.4165 41.9998 34.4165Z" fill="#FF4141"/>
<path d="M39.4795 46.1998C39.0362 46.1998 38.5929 46.0365 38.2429 45.6865C37.5662 45.0098 37.5662 43.8898 38.2429 43.2132L43.1662 38.2897C43.8428 37.6131 44.9628 37.6131 45.6395 38.2897C46.3161 38.9664 46.3161 40.0864 45.6395 40.7631L40.7162 45.6865C40.3662 46.0365 39.9228 46.1998 39.4795 46.1998Z" fill="#FF4141"/>
<path d="M44.4736 46.2466C44.0303 46.2466 43.587 46.0832 43.237 45.7332L38.3137 40.8099C37.637 40.1333 37.637 39.0133 38.3137 38.3366C38.9903 37.6599 40.1103 37.6599 40.787 38.3366L45.7103 43.2599C46.3869 43.9366 46.3869 45.0566 45.7103 45.7332C45.3603 46.0832 44.9169 46.2466 44.4736 46.2466Z" fill="#FF4141"/>
</svg>
