<svg width="10" height="10" viewBox="0 0 10 10" fill="none" xmlns="http://www.w3.org/2000/svg">
<path d="M8.99463 8.47681C9.27318 8.47681 9.50049 8.70634 9.50049 8.98853C9.50041 9.27118 9.27314 9.50024 8.99463 9.50024H6.14014C5.86163 9.50024 5.63533 9.27118 5.63525 8.98853C5.63525 8.70634 5.86158 8.47681 6.14014 8.47681H8.99463ZM5.12061 0.97876C5.5769 0.3929 6.37314 0.339241 7.01514 0.849854L7.75244 1.43579C8.05482 1.67228 8.25672 1.98393 8.32568 2.31177C8.40519 2.67235 8.32026 3.02695 8.08154 3.33325L3.68799 9.01392C3.48645 9.27175 3.18975 9.41664 2.87158 9.42212L1.12061 9.4436C1.02519 9.4436 0.945626 9.37957 0.924316 9.28833L0.525879 7.56274C0.45694 7.24566 0.526429 6.91787 0.728027 6.66528L3.84229 2.63403C3.89535 2.56959 3.99055 2.55985 4.0542 2.60767L5.36475 3.64966C5.44964 3.71953 5.56693 3.75758 5.68896 3.74146C5.94874 3.70904 6.12366 3.47246 6.09717 3.21997C6.08126 3.09104 6.01794 2.9832 5.93311 2.90259C5.90662 2.88112 4.66336 1.88406 4.65967 1.8811C4.58008 1.81661 4.56377 1.69849 4.62744 1.61841L5.12061 0.97876Z" fill="#101828"/>
</svg>
