<svg width="15" height="14" viewBox="0 0 15 14" fill="none" xmlns="http://www.w3.org/2000/svg">
<path d="M9.29355 7.00017C9.29355 8.14664 8.3671 9.07309 7.22063 9.07309C6.07415 9.07309 5.14771 8.14664 5.14771 7.00017C5.14771 5.85369 6.07415 4.92725 7.22063 4.92725C8.3671 4.92725 9.29355 5.85369 9.29355 7.00017Z" stroke="#1A3260" stroke-linecap="round" stroke-linejoin="round"/>
<path d="M7.22072 11.7887C9.26469 11.7887 11.1697 10.5843 12.4957 8.49985C13.0168 7.68342 13.0168 6.31112 12.4957 5.49469C11.1697 3.41019 9.26469 2.20581 7.22072 2.20581C5.17675 2.20581 3.27175 3.41019 1.94578 5.49469C1.42465 6.31112 1.42465 7.68342 1.94578 8.49985C3.27175 10.5843 5.17675 11.7887 7.22072 11.7887Z" stroke="#1A3260" stroke-linecap="round" stroke-linejoin="round"/>
</svg>
