<svg width="32" height="32" viewBox="0 0 32 32" fill="none" xmlns="http://www.w3.org/2000/svg">
<path fill-rule="evenodd" clip-rule="evenodd" d="M0.761903 9.28226C1.18247 9.28226 1.52381 8.94093 1.52381 8.52036V4.57142C1.52381 3.73408 1.86742 2.97218 2.4198 2.4198C2.97218 1.86666 3.73408 1.52381 4.57142 1.52381H8.62245C9.04302 1.52381 9.38435 1.18247 9.38435 0.761903C9.38435 0.341332 9.04302 0 8.62245 0H4.57142C3.31351 0 2.17066 0.514284 1.34247 1.34247C0.514284 2.17066 0 3.31351 0 4.57142V8.52036C0 8.94093 0.341332 9.28226 0.761903 9.28226ZM22.5684 0.761956C22.5684 1.18253 22.9098 1.52386 23.3303 1.52386H27.4286C28.2659 1.52386 29.0278 1.86748 29.5802 2.41986C30.1334 2.97224 30.4762 3.73414 30.4762 4.57147V8.58517C30.4762 9.00574 30.8175 9.34707 31.2381 9.34707C31.6587 9.34707 32 9.00574 32 8.58517V4.57147C32 3.31357 31.4857 2.17071 30.6575 1.34253C29.8294 0.514338 28.6865 5.34058e-05 27.4286 5.34058e-05H23.3303C22.9098 5.34058e-05 22.5684 0.341386 22.5684 0.761956ZM31.2384 22.7246C30.8179 22.7246 30.4765 23.066 30.4765 23.4866V27.4286C30.4765 28.266 30.1329 29.0279 29.5805 29.5802C29.0281 30.1334 28.2662 30.4762 27.4289 30.4762H23.3025C22.8819 30.4762 22.5405 30.8176 22.5405 31.2381C22.5405 31.6587 22.8819 32 23.3025 32H27.4289C28.6868 32 29.8297 31.4858 30.6579 30.6576C31.486 29.8294 32.0003 28.6865 32.0003 27.4286V23.4866C32.0003 23.066 31.659 22.7246 31.2384 22.7246ZM8.50595 30.4761C8.92652 30.4761 9.26786 30.8175 9.26786 31.238C9.26786 31.6586 8.92652 31.9999 8.50595 31.9999H4.57149C3.31359 31.9999 2.17073 31.4857 1.34255 30.6575C0.514358 29.8293 7.35106e-05 28.6864 7.35106e-05 27.4285V23.4864C7.35106e-05 23.0659 0.341406 22.7245 0.761976 22.7245C1.18255 22.7245 1.52388 23.0659 1.52388 23.4864V27.4285C1.52388 28.2659 1.86673 29.0278 2.41988 29.5801C2.97226 30.1325 3.73416 30.4761 4.57149 30.4761H8.50595ZM9.42811 9.49834C9.81363 9.49834 10.1298 9.81376 10.1298 10.2V12.437C10.1298 12.8225 9.8144 13.1387 9.42811 13.1387C9.04259 13.1387 8.7264 12.8233 8.7264 12.437V10.2C8.7264 9.81453 9.04183 9.49834 9.42811 9.49834ZM16.524 9.59294C16.105 9.59141 15.7636 9.9297 15.7621 10.3487L15.7179 16.6101C15.7156 16.9118 15.7042 17.3179 15.5709 17.5845C15.4848 17.7567 15.2928 17.8862 14.8897 17.8756C14.4699 17.8657 14.1225 18.1979 14.1126 18.6169C14.1027 19.0367 14.4349 19.3841 14.8539 19.3941C15.9899 19.4245 16.5979 18.9224 16.9278 18.2634C17.2105 17.6988 17.2326 17.0733 17.2356 16.6162L17.2798 10.3548C17.2813 9.93579 16.943 9.59446 16.524 9.59294ZM10.1456 22.5224C9.89726 22.1841 9.9704 21.7079 10.3095 21.4595C10.6477 21.2111 11.1239 21.2843 11.3723 21.6233C11.5178 21.8222 11.6885 22.0035 11.879 22.1673C12.81 22.9673 14.2233 23.3841 15.6908 23.4016C17.1727 23.4191 18.6858 23.0283 19.7967 22.2146C20.0702 22.0142 20.317 21.7894 20.5311 21.5403C20.8039 21.221 21.2839 21.1845 21.6024 21.4572C21.9216 21.73 21.9582 22.21 21.6854 22.5285C21.3913 22.8706 21.0584 23.1746 20.6949 23.4405C19.3113 24.4538 17.463 24.9406 15.6725 24.9193C13.8668 24.898 12.0969 24.3593 10.8908 23.3224C10.6104 23.0816 10.3597 22.8142 10.1456 22.5224ZM23.167 10.2C23.167 9.81376 22.8508 9.49834 22.4652 9.49834C22.079 9.49834 21.7635 9.81453 21.7635 10.2V12.437C21.7635 12.8233 22.0797 13.1387 22.4652 13.1387C22.8515 13.1387 23.167 12.8225 23.167 12.437V10.2Z" fill="#333333"/>
</svg>
