<svg width="9" height="9" viewBox="0 0 9 9" fill="none" xmlns="http://www.w3.org/2000/svg">
<path d="M4.50006 5.7273L6.9394 8.16664C7.23229 8.45953 7.70716 8.45953 8.00006 8.16664C8.29295 7.87374 8.29295 7.39887 8.00006 7.10598L5.56072 4.66664L8.00007 2.2273C8.29296 1.9344 8.29296 1.45953 8.00007 1.16664C7.70717 0.873744 7.2323 0.873744 6.93941 1.16664L4.50006 3.60598L2.06072 1.16664C1.76782 0.873744 1.29295 0.873744 1.00006 1.16664C0.707163 1.45953 0.707163 1.9344 1.00006 2.2273L3.4394 4.66664L1.00007 7.10598C0.707173 7.39887 0.707172 7.87374 1.00007 8.16664C1.29296 8.45953 1.76783 8.45953 2.06073 8.16664L4.50006 5.7273Z" fill="#E30000"/>
</svg>
