<svg width="48" height="48" viewBox="0 0 48 48" fill="none" xmlns="http://www.w3.org/2000/svg">
<path d="M0 24C0 10.7452 10.7452 0 24 0C37.2548 0 48 10.7452 48 24C48 37.2548 37.2548 48 24 48C10.7452 48 0 37.2548 0 24Z" fill="white"/>
<path fill-rule="evenodd" clip-rule="evenodd" d="M18.5 26.25C18.9142 26.25 19.25 26.5858 19.25 27V34C19.25 34.4142 18.9142 34.75 18.5 34.75C18.0858 34.75 17.75 34.4142 17.75 34V27C17.75 26.5858 18.0858 26.25 18.5 26.25Z" fill="#007175"/>
<path fill-rule="evenodd" clip-rule="evenodd" d="M18.5 13.25C18.9142 13.25 19.25 13.5858 19.25 14V17C19.25 17.4142 18.9142 17.75 18.5 17.75C18.0858 17.75 17.75 17.4142 17.75 17V14C17.75 13.5858 18.0858 13.25 18.5 13.25Z" fill="#007175"/>
<path fill-rule="evenodd" clip-rule="evenodd" d="M29.5 30.25C29.9142 30.25 30.25 30.5858 30.25 31V34C30.25 34.4142 29.9142 34.75 29.5 34.75C29.0858 34.75 28.75 34.4142 28.75 34V31C28.75 30.5858 29.0858 30.25 29.5 30.25Z" fill="#007175"/>
<path fill-rule="evenodd" clip-rule="evenodd" d="M29.5 13.25C29.9142 13.25 30.25 13.5858 30.25 14V21C30.25 21.4142 29.9142 21.75 29.5 21.75C29.0858 21.75 28.75 21.4142 28.75 21V14C28.75 13.5858 29.0858 13.25 29.5 13.25Z" fill="#007175"/>
<path fill-rule="evenodd" clip-rule="evenodd" d="M16.5056 18.0772C16.3544 18.2526 16.25 18.5485 16.25 19V25C16.25 25.4515 16.3544 25.7474 16.5056 25.9228C16.6389 26.0774 16.9048 26.25 17.5 26.25H19.5C20.0952 26.25 20.3611 26.0774 20.4944 25.9228C20.6456 25.7474 20.75 25.4515 20.75 25V19C20.75 18.5485 20.6456 18.2526 20.4944 18.0772C20.3611 17.9226 20.0952 17.75 19.5 17.75H17.5C16.9048 17.75 16.6389 17.9226 16.5056 18.0772ZM15.3694 17.0978C15.8611 16.5274 16.5952 16.25 17.5 16.25H19.5C20.4048 16.25 21.1389 16.5274 21.6306 17.0978C22.1044 17.6474 22.25 18.3515 22.25 19V25C22.25 25.6485 22.1044 26.3526 21.6306 26.9022C21.1389 27.4726 20.4048 27.75 19.5 27.75H17.5C16.5952 27.75 15.8611 27.4726 15.3694 26.9022C14.8956 26.3526 14.75 25.6485 14.75 25V19C14.75 18.3515 14.8956 17.6474 15.3694 17.0978Z" fill="#007175"/>
<path fill-rule="evenodd" clip-rule="evenodd" d="M27.5056 22.0772C27.3544 22.2526 27.25 22.5485 27.25 23V29C27.25 29.4515 27.3544 29.7474 27.5056 29.9228C27.6389 30.0774 27.9048 30.25 28.5 30.25H30.5C31.0952 30.25 31.3611 30.0774 31.4944 29.9228C31.6456 29.7474 31.75 29.4515 31.75 29V23C31.75 22.5485 31.6456 22.2526 31.4944 22.0772C31.3611 21.9226 31.0952 21.75 30.5 21.75H28.5C27.9048 21.75 27.6389 21.9226 27.5056 22.0772ZM26.3694 21.0978C26.8611 20.5274 27.5952 20.25 28.5 20.25H30.5C31.4048 20.25 32.1389 20.5274 32.6306 21.0978C33.1044 21.6474 33.25 22.3515 33.25 23V29C33.25 29.6485 33.1044 30.3526 32.6306 30.9022C32.1389 31.4726 31.4048 31.75 30.5 31.75H28.5C27.5952 31.75 26.8611 31.4726 26.3694 30.9022C25.8956 30.3526 25.75 29.6485 25.75 29V23C25.75 22.3515 25.8956 21.6474 26.3694 21.0978Z" fill="#007175"/>
</svg>
