<svg width="32" height="32" viewBox="0 0 32 32" fill="none" xmlns="http://www.w3.org/2000/svg">
<path fill-rule="evenodd" clip-rule="evenodd" d="M31.2449 15.4397C31.2075 6.917 24.2089 3.63639e-05 15.6171 3.63639e-05V0C7.02915 0 0.044178 6.91085 0.000686646 15.4283V15.4396L0.000663757 15.4848L0.000686646 15.5076C-5.34058e-05 15.5265 -5.34058e-05 15.5454 0.000686646 15.5643C0.00443268 18.0322 0.25407 20.4424 0.727528 22.774C0.805931 23.1685 1.18983 23.4248 1.585 23.3465C1.98017 23.2682 2.23696 22.8851 2.15856 22.4906C1.70568 20.2602 1.45986 17.9499 1.45441 15.587C1.45586 15.5606 1.45586 15.5341 1.45441 15.5076V15.4623C1.47943 7.71824 7.79872 1.45099 15.6171 1.45099C23.4277 1.45099 29.7536 7.70621 29.7912 15.4396C29.7901 15.4623 29.7901 15.485 29.7912 15.5076C29.7904 15.5265 29.7904 15.5454 29.7912 15.5643C29.8003 16.739 30.0978 17.8448 30.6203 18.8178C30.7368 19.056 30.9742 19.2119 31.2395 19.2243C31.5048 19.2367 31.7558 19.1037 31.8941 18.8774C32.0325 18.651 32.0361 18.3674 31.9036 18.1376C31.494 17.3746 31.2573 16.5109 31.2449 15.587C31.2464 15.5606 31.2464 15.5341 31.2449 15.5076V15.451V15.4397ZM26.9863 15.4394C26.949 9.24803 21.8595 4.22807 15.6175 4.22807V4.2281C9.37936 4.2281 4.3035 9.24196 4.26008 15.4281V15.4394C4.25994 15.4622 4.26008 15.4845 4.26008 15.5074C4.25934 15.5263 4.25934 15.5452 4.26008 15.5641C4.26895 20.686 5.4778 25.5316 7.62189 29.8362C7.73695 30.07 7.96854 30.2246 8.22903 30.2414C8.48952 30.2583 8.73915 30.1348 8.88347 29.9177C9.02779 29.7006 9.04476 29.423 8.92797 29.19C6.8841 25.0867 5.7262 20.4732 5.71384 15.5868C5.71529 15.5603 5.71529 15.5338 5.71384 15.5074C5.71384 10.0734 10.1335 5.6791 15.6175 5.6791C21.0782 5.6791 25.495 10.0375 25.5325 15.4394C25.5315 15.462 25.5315 15.4848 25.5325 15.5074C25.5318 15.5263 25.5318 15.5452 25.5325 15.5641C25.5483 18.7342 26.8919 21.5964 29.0306 23.6353C29.2103 23.847 29.4951 23.9379 29.7645 23.8695C30.0338 23.8011 30.2405 23.5854 30.297 23.3138C30.3535 23.0422 30.2499 22.7622 30.0301 22.5924C28.1709 20.82 27.0081 18.3428 26.9863 15.5868C26.9878 15.5603 26.9878 15.5338 26.9863 15.5074C26.9874 15.4848 26.9874 15.462 26.9863 15.4394ZM15.6176 8.44516C19.5137 8.44516 22.6963 11.5854 22.7273 15.4508C22.7281 15.4697 22.7281 15.4886 22.7273 15.5075C22.7288 15.5339 22.7288 15.5604 22.7273 15.5868C22.7506 19.7396 24.5925 23.4574 27.4974 26.016C27.6927 26.188 27.7811 26.4509 27.7292 26.7057C27.6773 26.9604 27.4931 27.1681 27.2461 27.2503C26.999 27.3326 26.7268 27.2769 26.5321 27.1042C23.323 24.2778 21.2902 20.1514 21.2736 15.5641C21.2728 15.5453 21.2728 15.5264 21.2736 15.5075C21.2725 15.4848 21.2725 15.4621 21.2736 15.4395C21.2363 12.369 18.7284 9.89615 15.6176 9.89615C12.4833 9.89615 9.97292 12.405 9.97292 15.5075C9.97437 15.5339 9.97437 15.5604 9.97292 15.5868C9.98928 21.2419 11.7645 26.4782 14.7998 30.7885C14.988 30.9967 15.0391 31.2945 14.9311 31.5533C14.8231 31.8122 14.5754 31.9858 14.2947 31.9992C14.0141 32.0126 13.7509 31.8634 13.6187 31.616C10.414 27.0654 8.53105 21.5318 8.51916 15.5641C8.51842 15.5453 8.51842 15.5264 8.51916 15.5075L8.51912 15.4846V15.4846C8.51908 15.4695 8.51904 15.4546 8.51916 15.4395V15.4282C8.56229 11.5732 11.7291 8.44519 15.6176 8.44519V8.44516ZM18.479 15.4287C18.4348 13.906 17.155 12.6741 15.617 12.6741H15.6169C14.0986 12.6741 12.8516 13.8764 12.7775 15.372C12.7727 15.3945 12.7689 15.4172 12.7662 15.44V15.5081C12.7655 15.527 12.7655 15.5459 12.7662 15.5647C12.7805 21.6157 15.0619 27.1483 18.8084 31.3558C19.0755 31.6542 19.5339 31.681 19.8341 31.4157C20.1342 31.1505 20.1631 30.693 19.8987 30.3923C16.383 26.4439 14.24 21.2668 14.22 15.5874C14.2215 15.561 14.2215 15.5345 14.22 15.5081C14.22 14.7369 14.8326 14.1251 15.617 14.1251C16.377 14.1251 16.9882 14.7028 17.0253 15.44C17.0242 15.4627 17.0242 15.4854 17.0253 15.5081C17.0245 15.527 17.0245 15.5459 17.0253 15.5647C17.041 21.1016 19.3589 26.1062 23.0788 29.6781C23.2647 29.8619 23.5354 29.9318 23.7873 29.861C24.0393 29.7901 24.2336 29.5896 24.2962 29.3359C24.3587 29.0823 24.2798 28.8146 24.0896 28.6352C20.647 25.3295 18.5012 20.7122 18.479 15.5874C18.4805 15.561 18.4805 15.5345 18.479 15.5081C18.4805 15.4817 18.4805 15.4552 18.479 15.4287Z" fill="#333333"/>
</svg>
