<svg width="20" height="20" viewBox="0 0 20 20" fill="none" xmlns="http://www.w3.org/2000/svg">
<path d="M14.353 0.000488281C17.7299 0.000488281 19.9994 2.36235 19.9995 5.88818V14.1021C19.9995 14.2531 19.9724 14.3887 19.9644 14.5347C19.9594 14.6196 19.9606 14.7046 19.9536 14.7896C19.9496 14.8275 19.9381 14.8629 19.9341 14.9009C19.9011 15.2146 19.8507 15.5144 19.7798 15.8052C19.7618 15.8832 19.7402 15.9587 19.7192 16.0347C19.6393 16.3166 19.5451 16.5854 19.4321 16.8423C19.3992 16.9142 19.3636 16.9833 19.3296 17.0542C19.2076 17.2992 19.0754 17.5344 18.9224 17.7524C18.8754 17.8194 18.8239 17.8798 18.7749 17.9448C18.6159 18.1508 18.4492 18.3479 18.2612 18.5269C18.2003 18.5847 18.1318 18.635 18.0679 18.6899C17.8749 18.8559 17.6774 19.0149 17.4604 19.1509C17.3825 19.1998 17.2962 19.2358 17.2163 19.2798C16.9954 19.4017 16.7726 19.5208 16.5298 19.6128C16.4298 19.6508 16.3184 19.6706 16.2144 19.7036C15.9755 19.7776 15.7397 19.8549 15.4829 19.8989C15.2889 19.9329 15.0775 19.9366 14.8735 19.9536C14.6995 19.9666 14.534 20.0005 14.353 20.0005H5.63721C5.26132 20.0005 4.90208 19.9627 4.55518 19.9058C4.54229 19.9038 4.52998 19.9019 4.51807 19.8999C3.16529 19.6669 2.0423 19.0136 1.25537 18.0288C1.24652 18.0287 1.24671 18.0182 1.23779 18.0093C0.446793 17.0133 -0.000488281 15.6741 -0.000488281 14.1021V5.88818C-0.000357456 2.36246 2.27047 0.000630774 5.63721 0.000488281H14.353ZM5.63721 1.39502C3.06048 1.39516 1.39612 3.16246 1.396 5.88818V14.1021C1.396 14.867 1.53782 15.5502 1.78076 16.1411C1.82155 16.0922 3.72942 13.766 3.75732 13.7349C4.44931 12.9449 5.74866 11.7661 7.45361 12.479C7.86346 12.6489 8.22332 12.8882 8.55322 13.0981C9.12622 13.4811 9.46396 13.6613 9.81396 13.6313C9.95864 13.6113 10.0944 13.5685 10.2231 13.4888C10.7811 13.1448 12.3586 10.8442 12.4536 10.7192C13.5436 9.29943 15.2236 8.91938 16.6235 9.75928C16.8115 9.87128 18.159 10.8129 18.605 11.1909V5.88818C18.6049 3.16236 16.9389 1.39502 14.353 1.39502H5.63721ZM6.479 4.00049C7.1766 4.00055 7.80876 4.29322 8.26123 4.76123C8.71564 5.21287 9.00049 5.83577 9.00049 6.51514C9.00044 7.86991 7.86659 9.00026 6.50537 9.00049C5.30867 9.00049 4.28776 8.12567 4.05908 6.99365C4.0213 6.82383 4.00049 6.6487 4.00049 6.46826C4.00074 5.10387 5.109 4.00049 6.479 4.00049Z" fill="#98A2B3"/>
</svg>
