<svg width="21" height="20" viewBox="0 0 21 20" fill="none" xmlns="http://www.w3.org/2000/svg">
<path d="M9.20801 15L12.5413 15" stroke="white" stroke-width="1.25" stroke-linecap="round" stroke-linejoin="round"/>
<path d="M2.83482 11.0112C2.54063 9.09689 2.39354 8.13972 2.75546 7.29117C3.11738 6.44262 3.92035 5.86205 5.52627 4.70091L6.72615 3.83335C8.7239 2.38891 9.72278 1.66669 10.8753 1.66669C12.0279 1.66669 13.0267 2.38891 15.0245 3.83335L16.2244 4.70091C17.8303 5.86205 18.6333 6.44262 18.9952 7.29117C19.3571 8.13972 19.21 9.09689 18.9158 11.0112L18.665 12.6437C18.2479 15.3575 18.0394 16.7143 17.0662 17.5238C16.0929 18.3334 14.67 18.3334 11.8243 18.3334H9.92631C7.0806 18.3334 5.65775 18.3334 4.68449 17.5238C3.71123 16.7143 3.50272 15.3575 3.08568 12.6437L2.83482 11.0112Z" stroke="white" stroke-width="1.25" stroke-linejoin="round"/>
</svg>
