<svg width="26" height="24" viewBox="0 0 26 24" fill="none" xmlns="http://www.w3.org/2000/svg">
<path d="M9.50195 18C11.4042 16.0463 14.9217 15.9543 16.8445 18M15.2088 12C15.2088 13.1046 14.2943 14 13.1663 14C12.0383 14 11.1238 13.1046 11.1238 12C11.1238 10.8954 12.0383 10 13.1663 10C14.2943 10 15.2088 10.8954 15.2088 12Z" stroke="#0957DE" stroke-width="1.5" stroke-linecap="round"/>
<path d="M10.5514 4.00098C7.77761 4.01083 6.29379 4.1033 5.3331 4.97097C4.25781 5.94215 4.25781 7.50522 4.25781 10.6314V15.3682C4.25781 18.4944 4.25781 20.0575 5.3331 21.0286C6.40838 21.9998 8.13903 21.9998 11.6003 21.9998H14.7471C18.2084 21.9998 19.939 21.9998 21.0143 21.0286C22.0896 20.0575 22.0896 18.4944 22.0896 15.3682V10.6314C22.0896 7.50522 22.0896 5.94215 21.0143 4.97097C20.0536 4.1033 18.5698 4.01083 15.796 4.00098" stroke="#0957DE" stroke-width="1.5" stroke-linecap="round" stroke-linejoin="round"/>
<path d="M10.8363 3.63163C10.9369 3.21682 10.9872 3.00942 11.0839 2.84004C11.309 2.44546 11.7243 2.15548 12.2201 2.0467C12.4329 2 12.6796 2 13.1731 2C13.6666 2 13.9133 2 14.1261 2.0467C14.6219 2.15548 15.0372 2.44545 15.2623 2.84004C15.359 3.00942 15.4093 3.21682 15.51 3.63163L15.5973 3.99176C15.7758 4.72744 15.8651 5.09528 15.7304 5.37824C15.6432 5.5615 15.4946 5.71842 15.3035 5.82911C15.0083 6 14.5707 6 13.6956 6H12.6506C11.7755 6 11.3379 6 11.0427 5.82911C10.8516 5.71842 10.703 5.5615 10.6158 5.37824C10.4811 5.09528 10.5704 4.72744 10.7489 3.99176L10.8363 3.63163Z" stroke="#0957DE" stroke-width="1.5"/>
</svg>
