<svg width="20" height="22" viewBox="0 0 20 22" fill="none" xmlns="http://www.w3.org/2000/svg">
<path d="M6.50195 17C8.40423 15.0463 11.9217 14.9543 13.8445 17M12.2088 11C12.2088 12.1046 11.2943 13 10.1663 13C9.03826 13 8.12381 12.1046 8.12381 11C8.12381 9.89543 9.03826 9 10.1663 9C11.2943 9 12.2088 9.89543 12.2088 11Z" stroke="#0957DE" stroke-width="1.5" stroke-linecap="round"/>
<path d="M7.55139 3.00098C4.77761 3.01083 3.29379 3.1033 2.3331 3.97097C1.25781 4.94215 1.25781 6.50522 1.25781 9.63138V14.3682C1.25781 17.4944 1.25781 19.0575 2.3331 20.0286C3.40838 20.9998 5.13903 20.9998 8.60032 20.9998H11.7471C15.2084 20.9998 16.939 20.9998 18.0143 20.0286C19.0896 19.0575 19.0896 17.4944 19.0896 14.3682V9.63138C19.0896 6.50522 19.0896 4.94215 18.0143 3.97097C17.0536 3.1033 15.5698 3.01083 12.796 3.00098" stroke="#0957DE" stroke-width="1.5" stroke-linecap="round" stroke-linejoin="round"/>
<path d="M7.83625 2.63163C7.9369 2.21682 7.98722 2.00942 8.08386 1.84004C8.309 1.44546 8.72431 1.15548 9.2201 1.0467C9.43292 1 9.67965 1 10.1731 1C10.6666 1 10.9133 1 11.1261 1.0467C11.6219 1.15548 12.0372 1.44545 12.2623 1.84004C12.359 2.00942 12.4093 2.21682 12.51 2.63163L12.5973 2.99176C12.7758 3.72744 12.8651 4.09528 12.7304 4.37824C12.6432 4.5615 12.4946 4.71842 12.3035 4.82911C12.0083 5 11.5707 5 10.6956 5H9.65063C8.77546 5 8.33788 5 8.04274 4.82911C7.85158 4.71842 7.70299 4.5615 7.61578 4.37824C7.48114 4.09528 7.57039 3.72744 7.74888 2.99176L7.83625 2.63163Z" stroke="#0957DE" stroke-width="1.5"/>
</svg>
