<svg width="22" height="22" viewBox="0 0 22 22" fill="none" xmlns="http://www.w3.org/2000/svg">
<path fill-rule="evenodd" clip-rule="evenodd" d="M5.75 10.75C5.75 7.98858 7.98858 5.75 10.75 5.75C12.0761 5.75 13.3479 6.27678 14.2855 7.21447C15.2232 8.15215 15.75 9.42392 15.75 10.75C15.75 13.5114 13.5114 15.75 10.75 15.75C7.98858 15.75 5.75 13.5114 5.75 10.75ZM7.51642 12.0894C8.05815 13.3973 9.33438 14.25 10.75 14.25C12.683 14.25 14.25 12.683 14.25 10.75C14.25 9.33438 13.3973 8.05816 12.0894 7.51642C10.7815 6.97469 9.27612 7.27413 8.27512 8.27513C7.27413 9.27612 6.97469 10.7815 7.51642 12.0894Z" fill="black"/>
<path d="M10.75 4.5C11.162 4.49461 11.4946 4.16196 11.5 3.75V0.75C11.5 0.335786 11.1642 0 10.75 0C10.3358 0 10 0.335786 10 0.75V3.75C10.0054 4.16196 10.338 4.49461 10.75 4.5Z" fill="black"/>
<path d="M10.75 17C10.338 17.0054 10.0054 17.338 10 17.75V20.75C10 21.1642 10.3358 21.5 10.75 21.5C11.1642 21.5 11.5 21.1642 11.5 20.75V17.75C11.4946 17.338 11.162 17.0054 10.75 17Z" fill="black"/>
<path d="M5.27 6.33C5.56282 6.62245 6.03718 6.62245 6.33 6.33C6.62245 6.03718 6.62245 5.56282 6.33 5.27L4.21 3.15C4.02303 2.94935 3.74144 2.86675 3.47571 2.93461C3.20998 3.00248 3.00248 3.20998 2.93461 3.47571C2.86675 3.74144 2.94935 4.02303 3.15 4.21L5.27 6.33Z" fill="black"/>
<path d="M16.23 15.17C15.9345 14.8946 15.474 14.9028 15.1884 15.1884C14.9028 15.474 14.8946 15.9345 15.17 16.23L17.29 18.35C17.4299 18.4916 17.6209 18.5709 17.82 18.57C18.0193 18.5721 18.2108 18.4926 18.35 18.35C18.6425 18.0572 18.6425 17.5828 18.35 17.29L16.23 15.17Z" fill="black"/>
<path d="M4.5 10.75C4.49461 10.338 4.16196 10.0054 3.75 10H0.75C0.335786 10 0 10.3358 0 10.75C0 11.1642 0.335786 11.5 0.75 11.5H3.75C4.16196 11.4946 4.49461 11.162 4.5 10.75Z" fill="black"/>
<path d="M20.75 10H17.75C17.3358 10 17 10.3358 17 10.75C17 11.1642 17.3358 11.5 17.75 11.5H20.75C21.1642 11.5 21.5 11.1642 21.5 10.75C21.5 10.3358 21.1642 10 20.75 10Z" fill="black"/>
<path d="M5.27 15.17L3.15 17.29C2.85754 17.5828 2.85754 18.0572 3.15 18.35C3.28923 18.4926 3.48071 18.5721 3.68 18.57C3.87906 18.5709 4.07011 18.4916 4.21 18.35L6.33 16.23C6.60536 15.9345 6.59723 15.474 6.31162 15.1884C6.02601 14.9028 5.56551 14.8946 5.27 15.17Z" fill="black"/>
<path d="M15.75 6.55C15.9491 6.55094 16.1401 6.47164 16.28 6.33L18.35 4.21C18.5507 4.02303 18.6332 3.74144 18.5654 3.47571C18.4975 3.20998 18.29 3.00248 18.0243 2.93461C17.7586 2.86675 17.477 2.94935 17.29 3.15L15.17 5.27C14.8775 5.56282 14.8775 6.03718 15.17 6.33C15.3218 6.48474 15.5338 6.56515 15.75 6.55Z" fill="black"/>
</svg>
