<svg width="12" height="14" viewBox="0 0 12 14" fill="none" xmlns="http://www.w3.org/2000/svg">
<path d="M6.00001 0C4.54186 0.00177305 3.14394 0.581805 2.11288 1.61287C1.08181 2.64394 0.501779 4.04185 0.500006 5.5C0.498284 6.69163 0.887576 7.85092 1.60816 8.8C1.60816 8.8 1.75816 8.99725 1.78226 9.02585L5.38983 13.2804C5.70935 13.6572 6.29066 13.6572 6.61018 13.2804L10.2195 9.0237C10.2417 8.99705 10.3919 8.7998 10.3919 8.7998L10.3926 8.7986C11.1128 7.84987 11.5018 6.69109 11.5 5.5C11.4982 4.04185 10.9182 2.64394 9.88713 1.61287C8.85607 0.581805 7.45815 0.00177305 6.00001 0ZM6.00001 7.5C5.60444 7.5 5.21776 7.3827 4.88887 7.16294C4.55997 6.94318 4.30362 6.63082 4.15225 6.26537C4.00087 5.89991 3.96126 5.49778 4.03843 5.10982C4.11561 4.72186 4.30609 4.36549 4.58579 4.08579C4.8655 3.80608 5.22186 3.6156 5.60983 3.53843C5.99779 3.46126 6.39992 3.50087 6.76537 3.65224C7.13082 3.80362 7.44318 4.05996 7.66294 4.38886C7.88271 4.71776 8.00001 5.10444 8.00001 5.5C7.99941 6.03025 7.78851 6.53861 7.41356 6.91356C7.03862 7.2885 6.53026 7.4994 6.00001 7.5Z" fill="#0957DE"/>
</svg>
