<svg width="26" height="24" viewBox="0 0 26 24" fill="none" xmlns="http://www.w3.org/2000/svg">
<path d="M20.5163 9V7.81818C20.5163 6.12494 20.5163 5.27832 20.2517 4.60214C19.8264 3.5151 18.927 2.65765 17.7868 2.2522C17.0775 2 16.1895 2 14.4134 2C11.3053 2 9.75117 2 8.50996 2.44135C6.51456 3.15088 4.9406 4.65142 4.19635 6.55375C3.7334 7.73706 3.7334 9.21865 3.7334 12.1818L3.7334 14.7273C3.7334 17.7966 3.7334 19.3313 4.57027 20.3971C4.81005 20.7025 5.09441 20.9736 5.41472 21.2022C6.53265 22 8.14242 22 11.362 22H12.1248C13.3518 22 15.7961 22 15.7961 22" stroke="#0957DE" stroke-width="1.5" stroke-linecap="round" stroke-linejoin="round"/>
<path d="M12.125 14.3333H13.0064C13.7004 14.3333 14.0473 14.3333 14.3261 14.5076C14.605 14.6818 14.7601 14.9956 15.0705 15.6232L16.7403 19L19.0479 12L20.7178 15.3768C21.0281 16.0044 21.1833 16.3182 21.4621 16.4924C21.7409 16.6667 22.0879 16.6667 22.7818 16.6667H23.6632" stroke="#0957DE" stroke-width="1.5" stroke-linecap="round" stroke-linejoin="round"/>
<path d="M3.7334 12C3.7334 10.1591 5.2988 8.66667 7.22983 8.66667H8.39531C8.93724 8.66667 9.2082 8.66667 9.43052 8.60988C10.0338 8.45577 10.505 8.00652 10.6667 7.43137C10.7263 7.21942 10.7263 6.9611 10.7263 6.44444V5.33333C10.7263 3.49238 12.2917 2 14.2227 2" stroke="#0957DE" stroke-width="1.5" stroke-linecap="round" stroke-linejoin="round"/>
</svg>
