<svg width="23" height="22" viewBox="0 0 23 22" fill="none" xmlns="http://www.w3.org/2000/svg">
<path d="M18.5163 8V6.81818C18.5163 5.12494 18.5163 4.27832 18.2517 3.60214C17.8264 2.5151 16.927 1.65765 15.7868 1.2522C15.0775 1 14.1895 1 12.4134 1C9.30525 1 7.75117 1 6.50996 1.44135C4.51456 2.15088 2.9406 3.65142 2.19635 5.55375C1.7334 6.73706 1.7334 8.21865 1.7334 11.1818L1.7334 13.7273C1.7334 16.7966 1.7334 18.3313 2.57027 19.3971C2.81005 19.7025 3.09441 19.9736 3.41472 20.2022C4.53265 21 6.14242 21 9.36198 21H10.1248C11.3518 21 13.7961 21 13.7961 21" stroke="#0957DE" stroke-width="1.5" stroke-linecap="round" stroke-linejoin="round"/>
<path d="M10.125 13.3333H11.0064C11.7004 13.3333 12.0473 13.3333 12.3261 13.5076C12.605 13.6818 12.7601 13.9956 13.0705 14.6232L14.7403 18L17.0479 11L18.7178 14.3768C19.0281 15.0044 19.1833 15.3182 19.4621 15.4924C19.7409 15.6667 20.0879 15.6667 20.7818 15.6667H21.6632" stroke="#0957DE" stroke-width="1.5" stroke-linecap="round" stroke-linejoin="round"/>
<path d="M1.7334 11C1.7334 9.15905 3.2988 7.66667 5.22983 7.66667L6.39531 7.66667C6.93724 7.66667 7.2082 7.66667 7.43052 7.60988C8.03381 7.45577 8.50504 7.00652 8.66669 6.43137C8.72626 6.21942 8.72626 5.9611 8.72626 5.44444V4.33333C8.72626 2.49238 10.2917 1 12.2227 1" stroke="#0957DE" stroke-width="1.5" stroke-linecap="round" stroke-linejoin="round"/>
</svg>
