<svg width="17" height="18" viewBox="0 0 17 18" fill="none" xmlns="http://www.w3.org/2000/svg">
<path d="M2.67364 8.57587C2.61241 9.7392 2.6828 10.9775 1.64344 11.757C1.1597 12.1198 0.875 12.6892 0.875 13.2939C0.875 14.1257 1.5265 14.8334 2.375 14.8334H14.375C15.2235 14.8334 15.875 14.1257 15.875 13.2939C15.875 12.6892 15.5903 12.1198 15.1066 11.757C14.0672 10.9775 14.1376 9.7392 14.0764 8.57587C13.9168 5.54354 11.4115 3.16669 8.375 3.16669C5.33848 3.16669 2.83324 5.54354 2.67364 8.57587Z" stroke="#999999" stroke-width="1.25" stroke-linecap="round" stroke-linejoin="round"/>
<path d="M7.125 1.60419C7.125 2.29454 7.68464 3.16669 8.375 3.16669C9.06536 3.16669 9.625 2.29454 9.625 1.60419C9.625 0.913831 9.06536 0.666687 8.375 0.666687C7.68464 0.666687 7.125 0.913831 7.125 1.60419Z" stroke="#999999" stroke-width="1.25"/>
<path d="M10.875 14.8333C10.875 16.214 9.75571 17.3333 8.375 17.3333C6.99429 17.3333 5.875 16.214 5.875 14.8333" stroke="#999999" stroke-width="1.25" stroke-linecap="round" stroke-linejoin="round"/>
</svg>
