<svg width="24" height="24" viewBox="0 0 24 24" fill="none" xmlns="http://www.w3.org/2000/svg">
<path d="M7.20044 0.450195H17.5139L23.55 6.48633V21.5996C23.55 22.6766 22.6768 23.5498 21.5999 23.5498H7.20044C6.12348 23.5498 5.25024 22.6766 5.25024 21.5996V2.40039C5.25024 1.32344 6.12348 0.450195 7.20044 0.450195Z" fill="white" stroke="#D0D5DD" stroke-width="0.9"/>
<mask id="path-2-inside-1_109_12147" fill="white">
<path d="M16.8003 0H24.0003V7.2H19.2003C17.8748 7.2 16.8003 6.12548 16.8003 4.8V0Z"/>
</mask>
<path d="M16.8003 0H24.0003H16.8003ZM24.0003 8.1H19.2003C17.3778 8.1 15.9003 6.62254 15.9003 4.8H17.7003C17.7003 5.62843 18.3719 6.3 19.2003 6.3H24.0003V8.1ZM19.2003 8.1C17.3778 8.1 15.9003 6.62254 15.9003 4.8V0H17.7003V4.8C17.7003 5.62843 18.3719 6.3 19.2003 6.3V8.1ZM24.0003 0V7.2V0Z" fill="#D0D5DD" mask="url(#path-2-inside-1_109_12147)"/>
<rect x="1.19995" y="9" width="15" height="11.4" rx="1.2" fill="#D92D20"/>
<path d="M3.16195 11.928H5.01595C5.47195 11.928 5.83795 12.042 6.10195 12.258C6.36595 12.474 6.50395 12.798 6.50395 13.23C6.50395 13.638 6.37795 13.962 6.13195 14.202C5.87995 14.442 5.54395 14.556 5.11795 14.556H3.91195V16.2H3.16195V11.928ZM3.91195 12.552V13.95H4.95595C5.49595 13.95 5.77195 13.716 5.77195 13.248C5.77195 12.786 5.47795 12.552 4.88995 12.552H3.91195ZM7.1519 11.928H8.7779C9.0719 11.928 9.3299 11.964 9.5579 12.024C9.7799 12.084 9.9839 12.198 10.1759 12.366C10.5959 12.744 10.8059 13.284 10.8059 13.992C10.8059 14.748 10.6019 15.33 10.2059 15.726C10.0259 15.906 9.8339 16.026 9.6299 16.098C9.4259 16.17 9.1559 16.2 8.8199 16.2H7.1519V11.928ZM7.8959 12.564V15.57H8.7779C9.2459 15.57 9.5759 15.438 9.7679 15.162C9.9599 14.892 10.0559 14.514 10.0559 14.028C10.0559 13.572 9.9479 13.212 9.7319 12.954C9.5159 12.696 9.1799 12.564 8.7299 12.564H7.8959ZM14.44 11.928V12.564H12.238V13.728H14.17V14.334H12.238V16.2H11.482V11.928H14.44Z" fill="white"/>
</svg>
