<svg width="24" height="24" viewBox="0 0 24 24" fill="none" xmlns="http://www.w3.org/2000/svg">
<path d="M7.2002 0.450195H17.5137L23.5498 6.48633V21.5996C23.5498 22.6766 22.6766 23.5498 21.5996 23.5498H7.2002C6.12324 23.5498 5.25 22.6766 5.25 21.5996V2.40039C5.25 1.32344 6.12324 0.450195 7.2002 0.450195Z" fill="white" stroke="#D0D5DD" stroke-width="0.9"/>
<mask id="path-2-inside-1_26_9091" fill="white">
<path d="M16.7998 0H23.9998V7.2H19.1998C17.8743 7.2 16.7998 6.12548 16.7998 4.8V0Z"/>
</mask>
<path d="M16.7998 0H23.9998H16.7998ZM23.9998 8.1H19.1998C17.3773 8.1 15.8998 6.62254 15.8998 4.8H17.6998C17.6998 5.62843 18.3714 6.3 19.1998 6.3H23.9998V8.1ZM19.1998 8.1C17.3773 8.1 15.8998 6.62254 15.8998 4.8V0H17.6998V4.8C17.6998 5.62843 18.3714 6.3 19.1998 6.3V8.1ZM23.9998 0V7.2V0Z" fill="#D0D5DD" mask="url(#path-2-inside-1_26_9091)"/>
<rect x="1.2002" y="9" width="15" height="11.4" rx="1.2" fill="#D92D20"/>
<path d="M3.1622 11.928H5.0162C5.4722 11.928 5.8382 12.042 6.1022 12.258C6.3662 12.474 6.5042 12.798 6.5042 13.23C6.5042 13.638 6.3782 13.962 6.1322 14.202C5.8802 14.442 5.5442 14.556 5.1182 14.556H3.9122V16.2H3.1622V11.928ZM3.9122 12.552V13.95H4.9562C5.4962 13.95 5.7722 13.716 5.7722 13.248C5.7722 12.786 5.4782 12.552 4.8902 12.552H3.9122ZM7.15215 11.928H8.77815C9.07215 11.928 9.33015 11.964 9.55815 12.024C9.78015 12.084 9.98415 12.198 10.1761 12.366C10.5961 12.744 10.8061 13.284 10.8061 13.992C10.8061 14.748 10.6021 15.33 10.2061 15.726C10.0261 15.906 9.83415 16.026 9.63015 16.098C9.42615 16.17 9.15615 16.2 8.82015 16.2H7.15215V11.928ZM7.89615 12.564V15.57H8.77815C9.24615 15.57 9.57615 15.438 9.76815 15.162C9.96015 14.892 10.0561 14.514 10.0561 14.028C10.0561 13.572 9.94815 13.212 9.73215 12.954C9.51615 12.696 9.18015 12.564 8.73015 12.564H7.89615ZM14.4402 11.928V12.564H12.2382V13.728H14.1702V14.334H12.2382V16.2H11.4822V11.928H14.4402Z" fill="white"/>
</svg>
