<svg width="35" height="35" viewBox="0 0 35 35" fill="none" xmlns="http://www.w3.org/2000/svg">
<path d="M12.2207 17.5001L15.7353 21.0293L22.779 13.9709" stroke="#E67E22" stroke-width="2" stroke-linecap="round" stroke-linejoin="round"/>
<path d="M15.677 3.57292C16.6832 2.71251 18.3311 2.71251 19.352 3.57292L21.6561 5.55626C22.0936 5.93542 22.9103 6.24167 23.4936 6.24167H25.9728C27.5186 6.24167 28.7874 7.51042 28.7874 9.05626V11.5354C28.7874 12.1042 29.0936 12.9354 29.4728 13.3729L31.4561 15.6771C32.3165 16.6833 32.3165 18.3313 31.4561 19.3521L29.4728 21.6563C29.0936 22.0938 28.7874 22.9104 28.7874 23.4938V25.9729C28.7874 27.5188 27.5186 28.7875 25.9728 28.7875H23.4936C22.9249 28.7875 22.0936 29.0938 21.6561 29.4729L19.352 31.4563C18.3457 32.3167 16.6978 32.3167 15.677 31.4563L13.3728 29.4729C12.9353 29.0938 12.1186 28.7875 11.5353 28.7875H9.01237C7.46654 28.7875 6.19779 27.5188 6.19779 25.9729V23.4792C6.19779 22.9104 5.89154 22.0938 5.52695 21.6563L3.5582 19.3375C2.71237 18.3313 2.71237 16.6979 3.5582 15.6917L5.52695 13.3729C5.89154 12.9354 6.19779 12.1188 6.19779 11.55V9.04167C6.19779 7.49584 7.46654 6.22709 9.01237 6.22709H11.5353C12.104 6.22709 12.9353 5.92084 13.3728 5.54167L15.677 3.57292Z" stroke="#E67E22" stroke-width="2" stroke-linecap="round" stroke-linejoin="round"/>
</svg>
