<svg width="26" height="24" viewBox="0 0 26 24" fill="none" xmlns="http://www.w3.org/2000/svg">
<path d="M13.1737 15.75C11.0024 15.75 9.24023 14.07 9.24023 12C9.24023 9.93 11.0024 8.25 13.1737 8.25C15.345 8.25 17.1072 9.93 17.1072 12C17.1072 14.07 15.345 15.75 13.1737 15.75ZM13.1737 9.75C11.873 9.75 10.8136 10.76 10.8136 12C10.8136 13.24 11.873 14.25 13.1737 14.25C14.4744 14.25 15.5338 13.24 15.5338 12C15.5338 10.76 14.4744 9.75 13.1737 9.75Z" fill="#0957DE"/>
<path d="M16.5415 22.1898C16.3212 22.1898 16.1009 22.1598 15.8807 22.1098C15.2303 21.9398 14.6849 21.5498 14.3387 20.9998L14.2129 20.7998C13.594 19.7798 12.7444 19.7798 12.1255 20.7998L12.0101 20.9898C11.664 21.5498 11.1185 21.9498 10.4682 22.1098C9.80737 22.2798 9.12556 22.1898 8.54865 21.8598L6.74449 20.8698C6.10465 20.5198 5.64312 19.9498 5.44382 19.2598C5.25501 18.5698 5.34942 17.8598 5.71654 17.2498C6.02073 16.7398 6.10465 16.2798 5.92633 15.9898C5.74801 15.6998 5.29697 15.5298 4.6781 15.5298C3.14666 15.5298 1.89844 14.3398 1.89844 12.8798V11.1198C1.89844 9.6598 3.14666 8.4698 4.6781 8.4698C5.29697 8.4698 5.74801 8.2998 5.92633 8.0098C6.10465 7.7198 6.03122 7.2598 5.71654 6.7498C5.34942 6.1398 5.25501 5.4198 5.44382 4.7398C5.63263 4.0498 6.09416 3.4798 6.74449 3.1298L8.55914 2.1398C9.74443 1.4698 11.3073 1.8598 12.0206 3.0098L12.1465 3.2098C12.7653 4.2298 13.615 4.2298 14.2339 3.2098L14.3492 3.0198C15.0625 1.8598 16.6254 1.4698 17.8212 2.1498L19.6253 3.1398C20.2652 3.4898 20.7267 4.0598 20.926 4.7498C21.1148 5.4398 21.0204 6.1498 20.6533 6.7598C20.3491 7.2698 20.2652 7.7298 20.4435 8.0198C20.6218 8.3098 21.0729 8.4798 21.6917 8.4798C23.2232 8.4798 24.4714 9.6698 24.4714 11.1298V12.8898C24.4714 14.3498 23.2232 15.5398 21.6917 15.5398C21.0729 15.5398 20.6218 15.7098 20.4435 15.9998C20.2652 16.2898 20.3386 16.7498 20.6533 17.2598C21.0204 17.8698 21.1253 18.5898 20.926 19.2698C20.7372 19.9598 20.2757 20.5298 19.6253 20.8798L17.8107 21.8698C17.4121 22.0798 16.982 22.1898 16.5415 22.1898ZM13.1744 18.4898C14.108 18.4898 14.9786 19.0498 15.5765 20.0398L15.6919 20.2298C15.8177 20.4398 16.0275 20.5898 16.2793 20.6498C16.531 20.7098 16.7828 20.6798 16.9925 20.5598L18.8072 19.5598C19.0799 19.4098 19.2897 19.1598 19.3736 18.8598C19.4575 18.5598 19.4156 18.2498 19.2582 17.9898C18.6603 17.0098 18.5869 15.9998 19.0484 15.2298C19.51 14.4598 20.4645 14.0198 21.6603 14.0198C22.3316 14.0198 22.8665 13.5098 22.8665 12.8698V11.1098C22.8665 10.4798 22.3316 9.9598 21.6603 9.9598C20.4645 9.9598 19.51 9.5198 19.0484 8.7498C18.5869 7.9798 18.6603 6.9698 19.2582 5.9898C19.4156 5.7298 19.4575 5.4198 19.3736 5.1198C19.2897 4.8198 19.0904 4.5798 18.8177 4.4198L17.003 3.4298C16.552 3.1698 15.9541 3.3198 15.6814 3.7598L15.566 3.9498C14.9681 4.9398 14.0975 5.4998 13.1639 5.4998C12.2304 5.4998 11.3598 4.9398 10.7619 3.9498L10.6465 3.7498C10.3843 3.3298 9.79688 3.1798 9.34584 3.4298L7.53119 4.4298C7.25847 4.5798 7.04868 4.8298 6.96477 5.1298C6.88085 5.4298 6.92281 5.7398 7.08015 5.9998C7.67804 6.9798 7.75146 7.9898 7.28994 8.7598C6.82841 9.5298 5.87388 9.9698 4.6781 9.9698C4.00679 9.9698 3.47183 10.4798 3.47183 11.1198V12.8798C3.47183 13.5098 4.00679 14.0298 4.6781 14.0298C5.87388 14.0298 6.82841 14.4698 7.28994 15.2398C7.75146 16.0098 7.67804 17.0198 7.08015 17.9998C6.92281 18.2598 6.88085 18.5698 6.96477 18.8698C7.04868 19.1698 7.24798 19.4098 7.5207 19.5698L9.33535 20.5598C9.55562 20.6898 9.81786 20.7198 10.0591 20.6598C10.3109 20.5998 10.5206 20.4398 10.657 20.2298L10.7724 20.0398C11.3703 19.0598 12.2409 18.4898 13.1744 18.4898Z" fill="#0957DE"/>
</svg>
