<svg width="18" height="18" viewBox="0 0 18 18" fill="none" xmlns="http://www.w3.org/2000/svg">
<path d="M6.95801 10.1111C6.95801 9.85279 6.95801 9.72362 6.9864 9.61765C7.06346 9.33007 7.28808 9.10545 7.57566 9.0284C7.68163 9 7.81079 9 8.06912 9H9.18023C9.43856 9 9.56772 9 9.67369 9.0284C9.96127 9.10545 10.1859 9.33007 10.2629 9.61765C10.2913 9.72362 10.2913 9.85279 10.2913 10.1111V10.6667C10.2913 11.5871 9.54515 12.3333 8.62467 12.3333C7.7042 12.3333 6.95801 11.5871 6.95801 10.6667V10.1111Z" stroke="#999999" stroke-width="1.25" stroke-linecap="round" stroke-linejoin="round"/>
<path d="M10.208 10.25H11.1935C12.2637 10.25 12.7988 10.25 13.2544 10.1535C14.573 9.87417 15.6488 9.01726 16.1196 7.87129C16.2822 7.47537 16.3486 6.99628 16.4814 6.0381C16.5312 5.6784 16.5561 5.49855 16.5321 5.35143C16.4624 4.92297 16.119 4.572 15.6565 4.45639C15.4976 4.41669 15.2967 4.41669 14.895 4.41669H2.35436C1.9526 4.41669 1.75172 4.41669 1.5929 4.45639C1.13036 4.572 0.786982 4.92297 0.717206 5.35143C0.693247 5.49855 0.718163 5.6784 0.767994 6.0381C0.900738 6.99628 0.96711 7.47537 1.12975 7.87129C1.60051 9.01726 2.67632 9.87417 3.99497 10.1535C4.45055 10.25 4.98566 10.25 6.05587 10.25H7.04134" stroke="#999999" stroke-width="1.25"/>
<path d="M1.54199 8.58331V10.25C1.54199 13.3927 1.54199 14.964 2.46406 15.9403C3.38613 16.9166 4.87019 16.9166 7.83829 16.9166H9.41236C12.3805 16.9166 13.8645 16.9166 14.7866 15.9403C15.7087 14.964 15.7087 13.3927 15.7087 10.25V8.58331" stroke="#999999" stroke-width="1.25" stroke-linecap="round" stroke-linejoin="round"/>
<path d="M11.5413 4.41665L11.477 4.1223C11.1561 2.65559 10.9957 1.92224 10.6138 1.50277C10.2319 1.08331 9.72455 1.08331 8.70996 1.08331H8.53939C7.5248 1.08331 7.0175 1.08331 6.63558 1.50277C6.25366 1.92224 6.09324 2.65559 5.7724 4.1223L5.70801 4.41665" stroke="#999999" stroke-width="1.25"/>
</svg>
