<svg width="49" height="49" viewBox="0 0 49 49" fill="none" xmlns="http://www.w3.org/2000/svg">
<path d="M20.1201 29.5488H12.5201C5.68012 29.5488 2.62012 26.4889 2.62012 19.6489V12.4487C2.62012 5.60873 5.68012 2.54883 12.5201 2.54883H19.7201C26.5601 2.54883 29.6201 5.60873 29.6201 12.4487V20.0488C29.6201 20.8688 28.9601 21.5288 28.1401 21.5488C23.3401 21.6288 21.7001 23.2888 21.6201 28.0688C21.6001 28.8888 20.9401 29.5488 20.1201 29.5488ZM12.5201 5.54883C7.36012 5.54883 5.62012 7.28873 5.62012 12.4487V19.6489C5.62012 24.8089 7.36012 26.5488 12.5201 26.5488H18.7001C19.1801 21.6688 21.7401 19.1289 26.6201 18.6289V12.4487C26.6201 7.28873 24.8801 5.54883 19.7201 5.54883H12.5201Z" fill="#007AFF"/>
<path d="M10.5201 13.3091C10.0601 13.3091 9.58012 13.0892 9.30012 12.6692C8.82012 11.9892 8.98013 11.0491 9.66013 10.5691C11.2201 9.46912 13.3201 9.44908 14.9001 10.5291C15.5801 10.9891 15.7601 11.9292 15.3001 12.6092C14.8401 13.2892 13.9001 13.4691 13.2201 13.0091C12.6801 12.6491 11.9601 12.6491 11.4201 13.0291C11.1201 13.2291 10.8201 13.3091 10.5201 13.3091Z" fill="#007AFF"/>
<path d="M18.5201 13.3091C18.0601 13.3091 17.5801 13.0892 17.3001 12.6692C16.8201 11.9892 16.9801 11.0491 17.6601 10.5691C19.2201 9.46912 21.3201 9.44908 22.9001 10.5291C23.5801 10.9891 23.7601 11.9292 23.3001 12.6092C22.8401 13.2892 21.9001 13.4691 21.2201 13.0091C20.6801 12.6491 19.9601 12.6491 19.4201 13.0291C19.1201 13.2291 18.8201 13.3091 18.5201 13.3091Z" fill="#007AFF"/>
<path d="M16.4397 24.3892H11.7997C10.3797 24.3892 9.21973 23.2291 9.21973 21.8091C9.21973 18.0091 12.3197 14.9092 16.1197 14.9092C17.6797 14.9092 19.2197 15.449 20.4397 16.429C21.0797 16.949 21.1997 17.8891 20.6797 18.5291C20.1597 19.1691 19.2197 19.269 18.5797 18.769C17.8797 18.209 17.0397 17.9092 16.1397 17.9092C14.1397 17.9092 12.4797 19.4292 12.2597 21.3892H16.4597C17.2797 21.3892 17.9597 22.0692 17.9597 22.8892C17.9597 23.7092 17.2597 24.3892 16.4397 24.3892Z" fill="#007AFF"/>
<path d="M35.7201 45.5488H28.5201C21.6801 45.5488 18.6201 42.4889 18.6201 35.6489V28.0488C18.7401 21.6688 21.7401 18.6688 28.1001 18.5488H35.7201C42.5601 18.5488 45.6201 21.6087 45.6201 28.4487V35.6489C45.6201 42.4889 42.5601 45.5488 35.7201 45.5488ZM28.1201 21.5488C23.3601 21.6288 21.7001 23.2888 21.6201 28.0688V35.6489C21.6201 40.8089 23.3601 42.5488 28.5201 42.5488H35.7201C40.8801 42.5488 42.6201 40.8089 42.6201 35.6489V28.4487C42.6201 23.2887 40.8801 21.5488 35.7201 21.5488H28.1201Z" fill="#007AFF"/>
<path d="M28.3001 29.3091C27.3601 29.3091 26.4401 29.029 25.6601 28.469C24.9801 27.989 24.8201 27.0492 25.3001 26.3692C25.7801 25.6892 26.7201 25.5291 27.4001 26.0091C27.9401 26.3891 28.6601 26.3891 29.2001 26.0291C29.8801 25.5691 30.8201 25.729 31.2801 26.429C31.7401 27.109 31.5801 28.0491 30.8801 28.5091C30.1001 29.0491 29.2001 29.3091 28.3001 29.3091Z" fill="#007AFF"/>
<path d="M36.3001 29.3091C35.3601 29.3091 34.4401 29.029 33.6601 28.469C32.9801 27.989 32.8201 27.0492 33.3001 26.3692C33.7801 25.6892 34.7201 25.5291 35.4001 26.0091C35.9401 26.3891 36.6601 26.3891 37.2001 26.0291C37.8801 25.5691 38.8201 25.729 39.2801 26.429C39.7401 27.109 39.5801 28.0491 38.8801 28.5091C38.1001 29.0491 37.2001 29.3091 36.3001 29.3091Z" fill="#007AFF"/>
<path d="M32.1197 40.3892C28.3197 40.3892 25.2197 37.289 25.2197 33.489C25.2197 32.069 26.3797 30.9092 27.7997 30.9092H36.4397C37.8597 30.9092 39.0197 32.069 39.0197 33.489C39.0197 37.289 35.9197 40.3892 32.1197 40.3892ZM28.2397 33.9092C28.4397 35.8692 30.0997 37.3892 32.1197 37.3892C34.1397 37.3892 35.7797 35.8692 35.9997 33.9092H28.2397Z" fill="#007AFF"/>
</svg>
