<svg width="16" height="16" viewBox="0 0 16 16" fill="none" xmlns="http://www.w3.org/2000/svg">
<path d="M9.03442 1.58425L10.3564 4.2459C10.5345 4.61401 11.0127 4.96323 11.4158 5.03874L13.8066 5.43515C15.3348 5.68999 15.6911 6.80374 14.5942 7.91748L12.7284 9.79574C12.419 10.1072 12.2409 10.7207 12.344 11.1643L12.8784 13.4862C13.3003 15.3173 12.3253 16.0346 10.722 15.0719L8.48125 13.7316C8.0781 13.4862 7.40305 13.4862 6.9999 13.7316L4.75912 15.0719C3.15589 16.0251 2.18082 15.3173 2.60273 13.4862L3.13714 11.1643C3.22152 10.7113 3.04338 10.0978 2.73398 9.7863L0.868232 7.90804C-0.228717 6.80374 0.127557 5.68999 1.65579 5.42572L4.04657 5.0293C4.44973 4.96323 4.92789 4.60457 5.10602 4.23647L6.42799 1.57481C7.14991 0.14016 8.31249 0.140161 9.03442 1.58425Z" fill="#FFB063"/>
</svg>
