<svg width="36" height="36" viewBox="0 0 36 36" fill="none" xmlns="http://www.w3.org/2000/svg">
<rect width="36" height="36" rx="18" fill="#F39F18" fill-opacity="0.1"/>
<g clip-path="url(#clip0_39_8692)">
<path d="M10.582 15.6531C10.582 19.7952 13.9399 23.1531 18.082 23.1531C22.2242 23.1531 25.582 19.7952 25.582 15.6531C25.582 11.5109 22.2242 8.15308 18.082 8.15308C13.9399 8.15308 10.582 11.5109 10.582 15.6531Z" stroke="#F39F18" stroke-width="1.5" stroke-linecap="round" stroke-linejoin="round"/>
<path d="M15.082 16.3205C15.082 16.3205 15.832 16.3205 16.582 17.6538C16.582 17.6538 18.9644 14.3205 21.082 13.6538" stroke="#F39F18" stroke-width="1.5" stroke-linecap="round" stroke-linejoin="round"/>
<path d="M22.9645 21.1538L23.6347 24.3638C24.0653 26.4262 24.2806 27.4574 23.8384 27.9461C23.3961 28.4348 22.6281 28.0144 21.0919 27.1736L18.8185 25.9291C18.4554 25.7304 18.2739 25.6311 18.082 25.6311C17.8902 25.6311 17.7086 25.7304 17.3456 25.9291L15.0721 27.1736C13.536 28.0144 12.768 28.4348 12.3257 27.9461C11.8834 27.4574 12.0987 26.4262 12.5293 24.3638L13.1996 21.1538" stroke="#F39F18" stroke-width="1.5" stroke-linejoin="round"/>
</g>
<defs>
<clipPath id="clip0_39_8692">
<rect width="21.9865" height="22.1538" fill="white" transform="translate(7.00684 6.9231)"/>
</clipPath>
</defs>
</svg>
