<svg width="26" height="24" viewBox="0 0 26 24" fill="none" xmlns="http://www.w3.org/2000/svg">
<path d="M11.9045 15.1698C11.6947 15.1698 11.4954 15.0898 11.3486 14.9498L8.81017 12.5298C8.50598 12.2398 8.50598 11.7598 8.81017 11.4698C9.11436 11.1798 9.61785 11.1798 9.92204 11.4698L11.9045 13.3598L16.4149 9.05979C16.7191 8.76979 17.2226 8.76979 17.5268 9.05979C17.831 9.34979 17.831 9.82978 17.5268 10.1198L12.4604 14.9498C12.3136 15.0898 12.1143 15.1698 11.9045 15.1698Z" fill="#0957DE"/>
<path d="M13.1741 22.75C12.5132 22.75 11.8524 22.54 11.3384 22.12L9.68113 20.76C9.51331 20.62 9.09373 20.48 8.87346 20.48H7.0693C5.51688 20.48 4.25817 19.28 4.25817 17.8V16.09C4.25817 15.88 4.11132 15.49 3.96447 15.33L2.54841 13.74C1.68829 12.77 1.68829 11.24 2.54841 10.27L3.96447 8.68C4.11132 8.52 4.25817 8.13 4.25817 7.92V6.2C4.25817 4.72 5.51688 3.52 7.0693 3.52H8.88395C9.10422 3.52 9.52379 3.37 9.69162 3.24L11.3489 1.88C12.3769 1.04 13.9817 1.04 15.0097 1.88L16.667 3.24C16.8348 3.38 17.2544 3.52 17.4747 3.52H19.2579C20.8103 3.52 22.069 4.72 22.069 6.2V7.9C22.069 8.11 22.2263 8.51 22.3732 8.67L23.7997 10.25C24.6808 11.23 24.6808 12.76 23.7997 13.74L22.3732 15.32C22.2263 15.48 22.069 15.88 22.069 16.09V17.79C22.069 19.27 20.8103 20.47 19.2579 20.47H17.4747C17.2544 20.47 16.8348 20.62 16.667 20.75L15.0097 22.11C14.4957 22.54 13.8349 22.75 13.1741 22.75ZM7.0693 5.02C6.38749 5.02 5.83156 5.55 5.83156 6.2V7.91C5.83156 8.48 5.54835 9.21 5.16025 9.64L3.74419 11.23C3.37707 11.64 3.37707 12.35 3.74419 12.76L5.16025 14.35C5.54835 14.79 5.83156 15.51 5.83156 16.08V17.79C5.83156 18.44 6.38749 18.97 7.0693 18.97H8.88395C9.49233 18.97 10.258 19.24 10.7196 19.62L12.3769 20.98C12.8069 21.33 13.5622 21.33 13.9922 20.98L15.6495 19.62C16.1111 19.25 16.8768 18.97 17.4852 18.97H19.2684C19.9502 18.97 20.5061 18.44 20.5061 17.79V16.09C20.5061 15.51 20.7893 14.78 21.1879 14.34L22.6144 12.76C22.9816 12.35 22.9816 11.63 22.6144 11.22L21.1879 9.64C20.7893 9.2 20.5061 8.47 20.5061 7.89V6.2C20.5061 5.55 19.9502 5.02 19.2684 5.02H17.4852C16.8768 5.02 16.1111 4.75 15.6495 4.37L13.9922 3.01C13.5622 2.66 12.8069 2.66 12.3769 3.01L10.7196 4.38C10.258 4.75 9.48184 5.02 8.88395 5.02H7.0693Z" fill="#0957DE"/>
</svg>
